<?xml version="1.0" encoding="UTF-8"?>
<svg id="Layer_2" data-name="Layer 2" xmlns="http://www.w3.org/2000/svg" viewBox="0 0 537.95 129.12">
  <defs>
    <style>
      .cls-1 {
        stroke-dasharray: 0 0 4.04 4.04;
      }

      .cls-1, .cls-2, .cls-3, .cls-4, .cls-5, .cls-6, .cls-7, .cls-8, .cls-9, .cls-10, .cls-11 {
        fill: none;
        stroke: #7f7f7f;
        stroke-miterlimit: 10;
        stroke-width: .5px;
      }

      .cls-2 {
        stroke-dasharray: 0 0 4.11 4.11;
      }

      .cls-3 {
        stroke-dasharray: 0 0 3.9 3.9;
      }

      .cls-4 {
        stroke-dasharray: 0 0 4.04 4.04;
      }

      .cls-5 {
        stroke-dasharray: 0 0 3.92 3.92;
      }

      .cls-6 {
        stroke-dasharray: 0 0 4.01 4.01;
      }

      .cls-7 {
        stroke-dasharray: 0 0 3.94 3.94;
      }

      .cls-8 {
        stroke-dasharray: 0 0 3.92 3.92;
      }

      .cls-9 {
        stroke-dasharray: 0 0 3.98 3.98;
      }

      .cls-12 {
        fill: #f7f7f7;
      }

      .cls-12, .cls-13 {
        stroke-width: 0px;
      }

      .cls-13 {
        fill: #e4b642;
      }

      .cls-10 {
        stroke-dasharray: 0 0 4.01 4.01;
      }
    </style>
  </defs>
  <g id="Layer_3" data-name="Layer 3">
    <g>
      <g>
        <polygon class="cls-12" points="139.42 30.74 239.94 .26 289.6 12.59 238.22 34.17 282.75 45.13 372.31 32.11 422.7 44.61 352.44 61.44 398.04 72.74 484.6 59.77 536.88 71.97 380.44 109.98 248.8 128.86 196.53 116.41 267.16 99.32 220.16 87.77 135.26 100.99 81.71 88.28 153.63 71.2 107.14 60.02 51.01 68.5 1.18 55.91 139.42 30.74"/>
        <g>
          <polyline class="cls-11" points="287.66 12.11 289.6 12.59 287.75 13.36"/>
          <line class="cls-9" x1="284.09" y1="14.9" x2="241.9" y2="32.62"/>
          <polyline class="cls-11" points="240.07 33.39 238.22 34.17 240.17 34.64"/>
          <polyline class="cls-5" points="243.97 35.58 282.75 45.13 372.31 32.11 418.85 43.66"/>
          <polyline class="cls-11" points="420.76 44.13 422.7 44.61 420.75 45.08"/>
          <line class="cls-6" x1="416.85" y1="46.01" x2="356.34" y2="60.5"/>
          <polyline class="cls-11" points="354.39 60.97 352.44 61.44 354.39 61.92"/>
          <polyline class="cls-8" points="358.19 62.86 398.04 72.74 484.6 59.77 533.02 71.07"/>
          <polyline class="cls-11" points="534.93 71.51 536.88 71.97 534.93 72.44"/>
          <polyline class="cls-4" points="531 73.4 380.44 109.98 248.8 128.86 200.44 117.34"/>
          <polyline class="cls-11" points="198.47 116.87 196.53 116.41 198.47 115.94"/>
          <line class="cls-1" x1="202.4" y1="114.99" x2="263.26" y2="100.27"/>
          <polyline class="cls-11" points="265.22 99.79 267.16 99.32 265.22 98.85"/>
          <polyline class="cls-7" points="261.39 97.91 220.16 87.77 135.26 100.99 85.57 89.2"/>
          <polyline class="cls-11" points="83.65 88.74 81.71 88.28 83.65 87.82"/>
          <line class="cls-2" x1="87.65" y1="86.87" x2="149.68" y2="72.13"/>
          <polyline class="cls-11" points="151.68 71.66 153.63 71.2 151.68 70.73"/>
          <polyline class="cls-3" points="147.9 69.82 107.14 60.02 51.01 68.5 5.01 56.88"/>
          <polyline class="cls-11" points="3.12 56.4 1.18 55.91 3.15 55.56"/>
          <polyline class="cls-10" points="7.09 54.84 139.42 30.74 239.94 .26 285.71 11.62"/>
        </g>
      </g>
      <polygon class="cls-13" points="207.04 39.65 130.86 54.29 177.87 65.85 253.21 50.95 207.04 39.65"/>
    </g>
  </g>
</svg>