<?xml version="1.0" encoding="UTF-8"?>
<svg id="Layer_2" data-name="Layer 2" xmlns="http://www.w3.org/2000/svg" viewBox="0 0 535.7 132.62">
  <defs>
    <style>
      .cls-1, .cls-2 {
        stroke-width: 0px;
      }

      .cls-2 {
        fill: #818772;
      }
    </style>
  </defs>
  <g id="Layer_3" data-name="Layer 3">
    <g>
      <polyline class="cls-1" points="288.42 12.33 288.42 16.34 237.05 37.92 237.05 33.91"/>
      <polyline class="cls-1" points="351.27 65.19 421.52 48.36 421.52 44.35 351.27 61.18"/>
      <polyline class="cls-1" points="195.35 120.16 247.62 132.62 379.27 113.74 535.7 75.72 535.7 71.71 379.27 109.73 247.62 128.61 195.35 116.15 195.35 120.16"/>
      <polygon class="cls-1" points="265.99 103.08 218.98 91.52 134.08 104.75 80.53 92.03 80.53 88.02 134.08 100.73 218.98 87.51 265.99 99.07 265.99 103.08"/>
      <polyline class="cls-1" points="0 55.65 0 59.67 49.83 72.25 105.96 63.78 152.45 74.95 152.45 70.94 105.96 59.76 49.83 68.24 0 55.65"/>
      <polygon class="cls-2" points="138.24 30.48 238.76 0 288.42 12.33 237.05 33.91 281.57 44.87 371.13 31.85 421.52 44.35 351.27 61.18 396.86 72.48 483.42 59.51 535.7 71.71 379.27 109.73 247.62 128.61 195.35 116.15 265.99 99.07 218.98 87.51 134.08 100.73 80.53 88.02 152.45 70.94 105.96 59.76 49.83 68.24 0 55.65 138.24 30.48"/>
    </g>
  </g>
</svg>