<?xml version="1.0" encoding="UTF-8"?>
<svg id="Layer_2" data-name="Layer 2" xmlns="http://www.w3.org/2000/svg" viewBox="0 0 535.44 129.01">
  <defs>
    <style>
      .cls-1, .cls-2 {
        stroke-width: 0px;
      }

      .cls-2 {
        fill: #5d5551;
      }
    </style>
  </defs>
  <g id="Layer_3" data-name="Layer 3">
    <g>
      <polygon class="cls-1" points="395.06 54.78 421.39 48.23 421.39 43.92 395.06 50.47 395.06 54.78"/>
      <polygon class="cls-1" points="270.1 24.47 288.72 16.5 288.72 12.2 270.1 20.16 270.1 24.47"/>
      <polygon class="cls-1" points="0 59.78 50.6 72.76 107.11 64.15 152.19 75.2 152.19 70.9 107.11 59.85 50.6 68.46 0 55.48 0 59.78"/>
      <polygon class="cls-1" points="99.54 87.4 154.38 101.53 221.16 91.76 265.73 102.42 265.73 98.12 221.16 87.46 154.38 97.22 99.54 83.1 99.54 87.4"/>
      <polygon class="cls-1" points="213.33 115.4 269.45 129.01 381.96 113.21 535.44 75.71 535.44 71.41 381.96 108.91 269.45 124.71 213.33 111.1 213.33 115.4"/>
      <polygon class="cls-2" points="141.79 29.8 238.37 0 288.72 12.2 270.1 20.16 338.55 36.6 370.02 31.85 421.39 43.92 395.06 50.47 452.99 64.47 484.71 59.21 535.44 71.41 381.96 108.91 269.45 124.71 213.33 111.1 265.73 98.12 221.16 87.46 154.38 97.22 99.54 83.1 152.19 70.9 107.11 59.85 50.6 68.46 0 55.48 141.79 29.8"/>
    </g>
  </g>
</svg>