<?xml version="1.0" encoding="utf-8"?>
<!-- Generator: Adobe Illustrator 27.9.0, SVG Export Plug-In . SVG Version: 6.00 Build 0)  -->
<svg version="1.1" id="Layer_2_00000134247591011984481950000015849431501754300590_"
	 xmlns="http://www.w3.org/2000/svg" xmlns:xlink="http://www.w3.org/1999/xlink" x="0px" y="0px" viewBox="0 0 296.6 296.6"
	 style="enable-background:new 0 0 296.6 296.6;" xml:space="preserve">
<style type="text/css">
	.st0{fill:#FFD568;}
</style>
<g id="Layer_1-2">
	<path class="st0" d="M296.6,296.6H0V0h296.6V296.6z M74.1,148.4C74.1,148.4,74,148.4,74.1,148.4C74,167.8,74,187.1,74,206.4
		c0,3.9,0,3.9,3.8,3.9c12.1,0,24.1,0,36.2,0c4.3,0,4.3,0,4.2-4.4c-0.5-17.6-1.1-35.1-1.7-52.6c-0.2-6.2-0.4-12.3-0.5-18.5
		c0-1,0.9-2.1,1.4-3.1c0.8,0.7,1.8,1.3,2.4,2.1c1.1,1.8,2,3.7,3,5.6c11.8,22.3,23.6,44.7,35.4,67c1.5,2.8,3.2,4.2,6.5,4
		c4.6-0.3,9.3-0.1,13.9-0.1c13.4,0,26.8,0,40.3,0c2,0,3.6-0.1,3.6-2.9c0-39.5,0-79,0-118.5c0-0.1,0-0.2,0-0.3
		c0.2-1.8-0.8-2.4-2.4-2.4c-13,0-26.1,0-39.1,0c-1.7,0-2.4,0.7-2.4,2.4c0.5,19.4,1,38.8,1.4,58.2c0.1,4.7,0.2,9.5,0.2,14.2
		c0,0.9-0.7,1.8-1,2.8c-0.8-0.6-1.6-1.3-2.5-1.9c-0.1-0.1-0.2-0.3-0.3-0.5c-12.9-24.1-25.8-48.1-38.6-72.2c-1.1-2.2-2.5-2.9-4.9-2.9
		c-18.2,0.1-36.5,0.1-54.8,0.1c-2.7,0-4.1,1.3-4.1,4C74.1,109.6,74.1,129,74.1,148.4L74.1,148.4z"/>
</g>
</svg>
