<?xml version="1.0" encoding="UTF-8"?>
<svg id="Layer_2" data-name="Layer 2" xmlns="http://www.w3.org/2000/svg" viewBox="0 0 296.59 296.59">
  <defs>
    <style>
      .cls-1 {
        stroke-width: 0px;
      }
    </style>
  </defs>
  <g id="Layer_1-2" data-name="Layer 1">
    <path class="cls-1" d="m296.59,296.59H0V0h296.59v296.59ZM74.09,148.44s-.05,0-.07,0c0,19.31,0,38.63,0,57.94,0,3.88,0,3.89,3.78,3.89,12.07,0,24.14,0,36.21,0,4.27,0,4.33,0,4.2-4.39-.53-17.55-1.11-35.1-1.66-52.65-.2-6.17-.45-12.34-.49-18.52,0-1.04.93-2.08,1.43-3.12.81.7,1.82,1.26,2.37,2.12,1.14,1.78,2.02,3.73,3.01,5.6,11.81,22.33,23.65,44.65,35.38,67.03,1.48,2.82,3.21,4.2,6.53,4.01,4.62-.27,9.27-.07,13.9-.07,13.42,0,26.84-.01,40.26.01,2.01,0,3.59-.13,3.59-2.86-.04-39.5-.03-79-.03-118.5,0-.1,0-.19,0-.29.16-1.77-.75-2.41-2.41-2.41-13.04.02-26.07.02-39.11,0-1.71,0-2.43.68-2.38,2.44.5,19.39.97,38.78,1.42,58.17.11,4.73.21,9.46.17,14.19,0,.92-.67,1.84-1.03,2.75-.82-.65-1.65-1.29-2.46-1.95-.14-.11-.18-.34-.27-.51-12.87-24.06-25.77-48.11-38.57-72.22-1.15-2.17-2.46-2.94-4.92-2.92-18.25.11-36.5.06-54.75.06q-4.09,0-4.1,3.97c0,19.41,0,38.82,0,58.23Z"/>
  </g>
</svg>